<svg
  xmlns="http://www.w3.org/2000/svg"
  xmlns:xlink="http://www.w3.org/1999/xlink"
  xmlns:svgjs="http://svgjs.dev/svgjs"
  version="1.1"
  width="32"
  height="32"
><svg
    xmlns="http://www.w3.org/2000/svg"
    width="32"
    height="32"
    viewBox="0 0 32 32"
    fill="none"
  >
    <path
      fill-rule="evenodd"
      clip-rule="evenodd"
      d="M17.8534 2.0126C17.7631 2.02279 17.4256 2.05329 17.1034 2.08038C16.7811 2.10753 16.2116 2.18073 15.8378 2.24315C10.5454 3.12641 5.54674 6.26484 2.64158 10.5285C1.55772 12.1192 0.857903 13.6564 0.417996 15.413C-0.637875 19.6287 0.32603 23.6208 3.08969 26.4782C4.43505 27.8692 6.29245 29.0026 8.32976 29.6757C12.4574 31.0393 17.3516 30.5742 21.7841 28.3972C23.8683 27.3735 25.6387 26.1003 27.3218 24.4146C28.2543 23.4807 28.8552 22.7592 29.6296 21.5556C31.1111 19.1852 31.8737 16.9858 31.99 14.1108C32.1183 10.9364 31.0147 8.06379 28.8256 5.87405C27.7933 4.84149 26.8687 4.18194 25.5406 3.53075C23.9917 2.77126 22.4063 2.3153 20.572 2.10183C19.9683 2.03157 18.1999 1.97351 17.8534 2.0126Z"
      fill="white"
    />
    <path
      fill-rule="evenodd"
      clip-rule="evenodd"
      d="M17.7104 2.04082C11.0079 2.45542 4.40098 6.68355 1.54336 12.387C-0.0606084 15.5883 -0.433419 19.1306 0.514403 22.1633C1.72648 26.0417 5.00252 28.902 9.50334 30.0116C11.5943 30.527 14.0356 30.584 16.3874 30.1723C20.3192 29.4841 24.1701 27.5106 27.0423 24.7121C27.3929 24.3705 27.8436 23.9051 28.0439 23.6779C28.4357 23.2334 29.1 22.3872 29.1 22.3325C29.1 22.3141 28.9714 22.2751 28.8142 22.2459C28.4228 22.173 28.0598 21.9829 27.8072 21.7185C27.6016 21.5033 27.3672 21.091 27.3662 20.9432C27.3653 20.7975 27.3098 20.8275 27.0009 21.1408C26.2924 21.8595 25.4185 22.2542 24.2646 22.3768C22.6672 22.5464 21.1033 21.8622 20.5485 20.7509C20.2959 20.2447 20.2255 19.9089 20.2527 19.3401C20.3431 17.4604 22.0708 15.8674 24.286 15.6214C25.0578 15.5357 26.0786 15.7008 26.7096 16.0134C26.8256 16.0709 27.0498 16.2112 27.2079 16.3253L27.4953 16.5326L27.6006 16.149C28.0032 14.6821 27.0619 13.5779 25.3249 13.4795C24.2719 13.4199 23.4087 13.7258 22.7707 14.3848L22.5112 14.6529L21.7395 14.216C21.3151 13.9758 20.9524 13.7647 20.9335 13.7471C20.8715 13.6892 21.3694 13.1421 21.7586 12.8406C22.4275 12.3224 23.2159 11.9891 24.1487 11.8304C24.8118 11.7176 26.0641 11.7629 26.6861 11.9223C28.4532 12.3751 29.5185 13.5611 29.5211 15.0785C29.5219 15.5216 29.4481 15.9086 29.1035 17.2682C28.7583 18.6298 28.6634 19.1569 28.6881 19.5749C28.7358 20.382 29.24 20.8565 29.9216 20.7358L30.1546 20.6946L30.5115 19.999C31.466 18.1387 31.9404 16.2577 31.9924 14.1273C32.02 12.9976 31.9753 12.3422 31.8128 11.492C30.7898 6.13915 26.041 2.43201 19.7024 2.03806C18.8759 1.98666 18.5789 1.98707 17.7104 2.04082ZM9.50756 11.8888L9.51946 15.8868L9.53141 20.6946L9.51946 22.2131H7.5394V20.7175V15.8982V11.8888H9.50756ZM15.9663 9.96246C15.991 10.6476 15.7665 11.2612 15.3339 11.6909L15.1183 11.9051H17.4455H19.7727V12.7313V13.5574H17.8728H15.973L15.9863 16.5982C15.9993 19.5709 16.0018 19.6442 16.0984 19.8745C16.2505 20.2368 16.4237 20.4263 16.7431 20.5796C17.1194 20.7603 17.5987 20.804 18.0531 20.6993C18.2287 20.6588 18.3816 20.6257 18.3929 20.6257C18.4042 20.6257 18.4134 20.9554 18.4134 21.3583V22.0908L18.0971 22.19C17.6843 22.3195 16.9148 22.3298 16.3746 22.2131C15.2309 21.966 14.5142 21.2868 14.1838 20.1365C14.0831 19.786 14.0797 19.6955 14.0557 16.6785L14.031 13.5804L12.7772 13.5682L11.5234 13.5559V12.7371V11.9183L11.8398 11.8888C12.9896 11.7816 13.82 11.3485 14.1557 10.6809C14.2903 10.4129 14.3069 10.3365 14.3094 9.9715L14.3122 9.56241L15.1325 9.5748L15.9527 9.58724L15.9663 9.96246ZM24.2723 17.1603C23.6794 17.2771 23.2786 17.4738 22.8723 17.8472C22.3562 18.3214 22.1388 18.8007 22.1739 19.3865C22.2289 20.3009 23.015 20.9011 24.1575 20.9011C25.3353 20.9011 26.4181 20.2091 26.7331 19.2549C26.8571 18.8794 26.8159 18.3355 26.6395 18.018C26.3867 17.5633 25.871 17.2358 25.2566 17.1399C24.8734 17.08 24.6566 17.0845 24.2723 17.1603Z"
      fill="#E9221E"
    />
  </svg>
  <style>
    @media (prefers-color-scheme: light) {
      :root {
        filter: none;
      }
    }

    @media (prefers-color-scheme: dark) {
      :root {
        filter: none;
      }
    }
  </style>
</svg>